<svg xmlns="http://www.w3.org/2000/svg" width="388.598" height="388.6" viewBox="0 0 388.598 388.6">
  <path id="Icon_awesome-facebook-square" data-name="Icon awesome-facebook-square" d="M346.963,2.25H41.636A41.636,41.636,0,0,0,0,43.886V349.214A41.636,41.636,0,0,0,41.636,390.85H160.687V258.734H106.041V196.55h54.647v-47.4c0-53.91,32.094-83.688,81.25-83.688,23.541,0,48.158,4.2,48.158,4.2v52.912H262.972c-26.725,0-35.061,16.585-35.061,33.595V196.55h59.66l-9.542,62.185H227.911V390.85H346.963A41.636,41.636,0,0,0,388.6,349.214V43.886A41.636,41.636,0,0,0,346.963,2.25Z" transform="translate(0 -2.25)" fill="#fff"/>
</svg>
