<svg xmlns="http://www.w3.org/2000/svg" width="381.37" height="381.371" viewBox="0 0 381.37 381.371">
  <path id="Icon_awesome-instagram" data-name="Icon awesome-instagram" d="M190.722,95.145a97.779,97.779,0,1,0,97.757,97.779A97.613,97.613,0,0,0,190.722,95.145Zm0,161.348a63.569,63.569,0,1,1,63.555-63.569A63.677,63.677,0,0,1,190.722,256.492ZM315.279,91.145a22.8,22.8,0,1,1-22.8-22.807A22.751,22.751,0,0,1,315.279,91.145Zm64.746,23.147c-1.446-30.55-8.423-57.612-30.8-79.908-22.291-22.3-49.346-29.274-79.89-30.806-31.48-1.787-125.833-1.787-157.312,0C81.565,5.025,54.51,12,32.134,34.3S2.866,83.656,1.335,114.207c-1.787,31.487-1.787,125.861,0,157.348,1.446,30.551,8.423,57.612,30.8,79.908s49.346,29.274,79.89,30.806c31.48,1.787,125.833,1.787,157.312,0,30.544-1.447,57.6-8.425,79.89-30.806,22.291-22.3,29.267-49.358,30.8-79.908,1.787-31.487,1.787-125.776,0-157.263ZM339.357,305.339a64.351,64.351,0,0,1-36.244,36.252c-25.1,9.957-84.654,7.659-112.39,7.659s-87.377,2.213-112.39-7.659a64.351,64.351,0,0,1-36.244-36.252c-9.954-25.1-7.657-84.674-7.657-112.416s-2.212-87.4,7.657-112.416A64.351,64.351,0,0,1,78.332,44.255c25.1-9.957,84.654-7.659,112.39-7.659s87.377-2.213,112.39,7.659a64.351,64.351,0,0,1,36.244,36.252c9.954,25.1,7.657,84.673,7.657,112.416S349.311,280.32,339.357,305.339Z" transform="translate(0.005 -2.238)" fill="#fff"/>
</svg>
