<svg xmlns="http://www.w3.org/2000/svg" width="391.527" height="275.797" viewBox="0 0 391.527 275.797">
  <path id="Icon_awesome-youtube" data-name="Icon awesome-youtube" d="M384.4,47.653a49.241,49.241,0,0,0-34.615-34.9C319.247,4.5,196.813,4.5,196.813,4.5S74.38,4.5,43.846,12.749a49.243,49.243,0,0,0-34.615,34.9C1.05,78.441,1.05,142.677,1.05,142.677s0,64.236,8.181,95.024a48.506,48.506,0,0,0,34.615,34.346C74.38,280.3,196.813,280.3,196.813,280.3s122.433,0,152.967-8.25A48.506,48.506,0,0,0,384.4,237.7c8.181-30.788,8.181-95.024,8.181-95.024s0-64.236-8.181-95.024ZM156.771,201V84.355L259.1,142.678,156.771,201Z" transform="translate(-1.05 -4.5)" fill="#fff"/>
</svg>
